<?xml version="1.0" standalone="no"?>
<!DOCTYPE svg PUBLIC "-//W3C//DTD SVG 20010904//EN"
 "http://www.w3.org/TR/2001/REC-SVG-20010904/DTD/svg10.dtd">
<svg version="1.0" xmlns="http://www.w3.org/2000/svg"
 width="3000.000000pt" height="3000.000000pt" viewBox="0 0 3000.000000 3000.000000"
 preserveAspectRatio="xMidYMid meet">

<g transform="translate(0.000000,3000.000000) scale(0.100000,-0.100000)"
fill="#000000" stroke="none">
<path d="M7128 26736 c-90 -39 -142 -155 -212 -466 -43 -193 -56 -331 -56
-581 0 -126 -3 -229 -6 -229 -4 0 -36 26 -73 59 -87 77 -334 271 -439 345
-202 142 -565 325 -754 380 -180 52 -290 44 -353 -25 -51 -56 -51 -106 1 -221
19 -42 61 -148 94 -236 190 -511 369 -812 650 -1092 138 -138 249 -225 406
-320 57 -35 102 -65 100 -68 -3 -2 -48 -13 -100 -23 -362 -73 -759 -265 -1085
-527 -212 -170 -448 -446 -466 -546 -15 -76 15 -124 82 -133 32 -4 46 1 91 32
30 20 55 35 57 33 2 -2 -32 -57 -75 -121 -173 -260 -348 -693 -415 -1025 -13
-65 -14 -90 -5 -116 13 -42 48 -66 92 -66 39 0 56 11 167 107 80 70 109 88 98
61 -20 -55 -61 -219 -78 -315 -51 -289 -16 -720 80 -974 69 -183 174 -227 252
-107 19 29 39 53 45 55 7 2 13 -24 17 -75 7 -102 58 -255 123 -365 101 -169
347 -383 556 -482 109 -51 159 -64 250 -65 64 0 98 -14 98 -40 0 -5 23 -34 52
-65 89 -98 230 -180 387 -225 65 -19 81 -28 81 -43 0 -16 -5 -18 -39 -12 -62
10 -110 -4 -157 -47 l-42 -39 -114 17 c-289 43 -747 -39 -1034 -184 -99 -50
-236 -146 -292 -206 -93 -98 -140 -234 -128 -371 14 -166 100 -370 195 -466
88 -87 143 -97 287 -50 132 44 426 118 534 136 52 8 147 18 211 22 l115 6 18
-47 c10 -26 16 -49 14 -51 -18 -19 -455 -213 -542 -241 -136 -45 -194 -73
-248 -122 -111 -99 -142 -207 -218 -737 -22 -159 -56 -398 -75 -530 -19 -132
-50 -364 -70 -515 -76 -594 -87 -660 -185 -1135 -11 -55 -38 -143 -59 -195
-38 -92 -83 -232 -116 -355 -29 -109 -31 -228 -5 -343 20 -95 22 -120 16 -320
-22 -792 -20 -883 20 -1207 21 -169 41 -262 158 -735 138 -554 140 -568 140
-825 0 -172 -4 -231 -21 -325 -35 -188 -102 -528 -123 -625 -66 -303 14 -493
364 -863 l69 -73 -32 -156 c-18 -87 -37 -163 -43 -170 -6 -8 -33 -13 -69 -13
-129 0 -258 -50 -347 -134 -86 -81 -122 -174 -122 -312 0 -181 109 -248 470
-289 173 -19 253 -19 320 1 50 15 54 15 79 -4 43 -31 105 -60 157 -73 32 -8
61 -24 82 -45 17 -18 47 -40 66 -49 30 -14 34 -21 39 -67 17 -138 162 -253
295 -233 130 19 264 129 495 407 189 228 271 358 296 468 5 25 17 128 26 230
9 102 23 241 31 310 31 275 7 437 -82 543 -38 45 -165 150 -334 276 -85 63
-204 152 -265 196 -117 87 -423 351 -466 402 -17 20 -32 59 -45 114 -16 73
-18 122 -17 379 2 327 10 434 53 687 31 178 57 285 140 563 106 356 130 481
130 677 0 195 -20 338 -100 698 -96 438 -95 432 -94 600 0 126 6 175 32 305
17 85 38 202 47 260 21 130 58 280 90 367 35 92 77 183 84 183 3 0 33 -51 65
-113 109 -206 283 -482 471 -747 174 -246 199 -306 214 -505 14 -189 17 -707
7 -1290 -10 -547 -3 -715 35 -935 51 -294 215 -640 426 -900 188 -231 324
-354 578 -523 253 -167 597 -333 846 -407 58 -18 74 -28 106 -67 110 -135 177
-203 201 -209 47 -9 56 -19 109 -124 52 -102 155 -268 375 -605 214 -328 488
-796 488 -833 0 -5 -38 -69 -84 -143 -339 -546 -559 -1047 -836 -1909 -173
-536 -295 -775 -527 -1037 -53 -59 -182 -199 -287 -311 -209 -222 -279 -316
-326 -435 -62 -158 -74 -287 -34 -397 23 -64 118 -191 246 -328 138 -148 219
-258 283 -387 46 -92 57 -126 70 -209 34 -218 121 -397 272 -557 137 -144 295
-219 484 -227 180 -8 320 37 456 147 l62 50 63 -29 c219 -99 489 -70 709 75
l80 53 47 -16 c33 -11 84 -15 172 -15 107 0 136 4 205 26 112 37 197 90 275
174 131 140 212 361 197 539 -25 288 -190 573 -396 682 -93 50 -170 65 -296
59 -115 -5 -178 -21 -362 -88 l-91 -33 -79 37 c-125 58 -188 70 -333 64 -125
-6 -197 -22 -319 -72 l-44 -18 -51 26 c-28 15 -78 52 -112 82 -71 63 -104 128
-111 220 -7 85 17 145 122 308 284 437 652 993 796 1202 564 820 733 1085 870
1369 113 235 244 570 390 995 82 239 74 272 -112 518 -117 153 -162 221 -301
445 -214 348 -307 509 -528 918 -73 134 -143 260 -156 280 -18 25 -24 48 -24
86 0 37 -8 66 -29 105 -16 30 -40 100 -55 156 -14 56 -31 114 -36 128 -6 14
-10 33 -10 40 0 8 41 49 92 92 50 43 156 133 234 200 107 92 164 133 234 168
l91 46 132 6 c73 3 256 -1 407 -8 151 -8 354 -14 450 -14 220 1 270 13 344 86
38 37 57 49 80 49 79 0 514 60 761 105 1013 185 1130 209 1381 282 84 24 98
26 106 13 4 -8 68 -120 141 -248 242 -423 448 -690 830 -1076 282 -285 466
-522 761 -985 83 -129 260 -437 292 -506 18 -38 44 -115 58 -171 58 -230 124
-356 239 -453 158 -134 407 -160 637 -65 124 50 293 161 495 323 76 61 202
152 280 201 167 106 278 200 398 335 171 195 256 343 346 607 27 81 58 159 67
174 12 18 51 42 111 70 161 75 246 143 316 255 65 102 80 164 85 346 5 195 -7
289 -54 433 -113 340 -343 494 -625 419 -42 -11 -52 -10 -95 8 -69 29 -110 34
-177 23 -163 -26 -307 -151 -407 -350 -52 -104 -76 -181 -90 -280 -11 -77 -15
-88 -50 -126 -96 -104 -131 -258 -95 -413 14 -58 74 -193 96 -216 19 -19 7
-38 -83 -132 -239 -246 -457 -390 -624 -409 -44 -6 -54 -3 -81 20 -17 15 -56
63 -86 109 -101 151 -462 771 -620 1062 -352 651 -652 1098 -1082 1610 -119
142 -151 187 -195 275 -72 144 -274 372 -372 418 -76 35 -163 28 -428 -38
-149 -36 -147 -36 -405 -60 -366 -33 -674 -50 -1143 -60 -246 -6 -490 -15
-542 -19 l-95 -9 -40 43 c-64 69 -102 70 -316 10 -169 -48 -397 -69 -521 -49
l-36 6 -7 87 c-24 305 -140 674 -323 1031 -156 304 -306 536 -593 916 -111
147 -231 312 -268 368 -109 165 -337 563 -327 573 8 8 409 -175 719 -329 386
-190 408 -197 597 -179 69 7 143 16 165 21 129 30 386 82 446 90 39 6 185 17
324 25 138 8 292 22 341 30 161 28 357 91 589 188 230 98 853 417 1073 551
274 166 444 225 702 241 227 13 328 26 402 49 57 17 80 21 87 12 5 -6 24 -81
41 -166 41 -199 54 -234 95 -266 105 -80 474 -61 788 41 216 70 381 174 452
285 19 31 31 37 84 48 150 31 223 186 156 330 l-25 53 35 46 c45 59 58 110 52
203 -6 97 -35 171 -98 249 l-51 64 18 56 c55 169 -31 401 -224 602 -113 118
-181 172 -285 224 l-79 40 -38 110 c-84 245 -131 343 -199 418 -20 22 -90 76
-156 119 -66 44 -124 89 -129 101 -26 66 -146 435 -166 509 -22 84 -22 89 -6
131 38 99 7 202 -74 245 -41 22 -53 23 -140 19 -161 -9 -390 -90 -460 -162
-59 -61 -48 -171 21 -212 36 -21 41 -37 79 -258 18 -99 45 -251 60 -338 33
-181 32 -187 -40 -307 -109 -180 -143 -298 -139 -479 l3 -127 -43 -44 c-24
-25 -60 -70 -81 -100 -115 -169 -320 -550 -341 -634 -13 -53 -11 -52 -264
-158 -333 -141 -486 -178 -1135 -278 -179 -28 -377 -60 -440 -71 -200 -35
-928 -179 -1105 -219 -211 -48 -357 -76 -459 -90 -67 -9 -90 -7 -160 9 -134
32 -210 66 -370 165 -83 51 -216 131 -296 178 -367 216 -618 404 -1030 773
-181 162 -271 230 -370 280 -70 35 -177 69 -250 80 -58 8 -270 75 -270 85 0 4
7 24 15 43 12 28 15 81 15 232 0 128 4 195 10 195 6 0 46 -20 88 -45 161 -95
329 -144 518 -152 156 -7 246 9 353 63 92 46 196 155 245 256 58 123 66 183
76 568 9 375 19 458 70 612 59 176 118 257 230 313 36 18 86 50 110 71 25 20
108 84 185 142 194 147 320 278 406 422 23 39 45 67 49 63 4 -4 13 -30 19 -58
36 -148 170 -255 320 -255 189 0 335 161 318 351 -14 157 -142 278 -313 296
-61 7 -144 -15 -198 -52 -21 -14 -41 -24 -43 -21 -3 3 0 42 6 87 14 105 14
245 0 364 -6 52 -9 99 -7 106 2 7 16 -8 30 -32 52 -89 162 -170 266 -198 62
-17 170 -15 235 4 167 48 295 210 305 386 13 217 -115 391 -333 454 -77 23
-202 16 -269 -14 -153 -67 -266 -227 -266 -376 0 -54 -14 -65 -34 -27 -20 38
-79 90 -114 99 -37 9 -77 9 -135 -1 l-48 -8 3 53 c3 53 4 54 37 59 21 3 41 15
54 32 17 23 20 41 18 155 -4 333 -58 660 -141 854 -16 39 -30 75 -30 79 0 4
18 10 39 14 53 8 91 53 91 108 0 64 -82 254 -166 388 -62 97 -122 176 -192
251 l-55 60 16 29 c38 63 14 131 -111 310 -206 296 -531 539 -870 653 -57 19
-106 37 -109 40 -2 3 19 21 49 40 99 63 203 154 334 293 259 276 278 299 295
374 18 77 -33 161 -119 198 -103 44 -391 82 -624 82 -103 0 -336 -24 -443 -46
-268 -54 -629 -215 -797 -356 -33 -27 -49 -36 -52 -26 -2 7 -7 69 -10 138 -13
291 -94 562 -256 865 -160 296 -359 562 -455 606 -46 21 -97 23 -137 5z m189
-371 c147 -196 307 -497 377 -709 64 -194 87 -326 93 -545 4 -147 2 -232 -11
-345 -10 -83 -21 -181 -25 -218 -4 -38 -4 -68 0 -68 4 0 38 60 75 133 36 72
88 161 114 197 56 75 212 230 285 282 186 132 447 232 705 269 121 17 413 15
535 -4 108 -17 342 -71 352 -81 26 -26 -321 -393 -461 -486 -98 -65 -266 -146
-406 -195 -161 -56 -325 -92 -560 -125 -118 -16 -253 -36 -300 -45 -47 -8 -97
-15 -112 -15 -16 0 -28 -4 -28 -10 0 -5 12 -10 28 -10 15 0 79 -5 144 -10 132
-10 475 2 584 20 60 11 87 10 175 -5 176 -28 419 -83 535 -120 140 -44 362
-155 483 -242 98 -71 260 -219 227 -209 -106 34 -321 46 -402 21 -27 -8 -60
-15 -74 -16 -23 0 -23 -1 -5 -9 11 -4 49 -13 85 -20 211 -39 460 -215 634
-448 70 -95 206 -314 206 -333 0 -7 -10 -4 -27 7 -156 104 -298 164 -385 164
-76 0 -86 -9 -38 -36 71 -40 150 -115 235 -222 188 -236 277 -451 350 -840 36
-191 37 -188 -42 -105 -69 72 -202 175 -248 193 -30 11 -31 7 -6 -28 62 -88
110 -239 129 -407 18 -152 31 -276 37 -367 l7 -87 -76 -56 c-299 -221 -653
-408 -990 -524 -224 -77 -509 -131 -691 -131 -160 0 -318 29 -769 141 -630
157 -834 188 -1009 155 -166 -32 -281 -88 -447 -221 -209 -167 -347 -432 -366
-703 -6 -78 -9 -92 -23 -88 -202 61 -246 81 -391 176 -339 223 -485 563 -371
867 17 46 30 98 29 116 l-1 33 -61 -4 c-109 -8 -230 -87 -291 -191 -16 -28
-33 -51 -36 -51 -8 0 -37 209 -49 350 -28 334 11 666 104 881 50 115 125 237
176 287 l45 43 -40 -5 c-22 -3 -66 -8 -98 -11 -110 -10 -322 -115 -425 -209
-23 -21 -44 -37 -46 -35 -7 8 133 341 197 472 137 275 326 513 520 651 36 25
72 58 82 72 9 14 32 32 51 40 19 8 33 18 30 23 -3 4 -38 14 -79 21 -92 15
-182 3 -319 -45 -54 -18 -98 -31 -98 -28 0 13 193 214 280 291 250 223 559
386 867 458 130 30 324 55 498 64 99 5 239 16 310 25 72 8 149 12 172 9 79
-12 81 3 7 43 -38 20 -88 49 -112 65 -23 16 -119 61 -213 99 -345 141 -569
254 -736 371 -257 180 -446 419 -603 759 -97 212 -206 501 -190 507 4 2 35 -8
68 -22 33 -14 107 -41 164 -60 338 -114 738 -315 1002 -504 154 -111 323 -316
421 -512 38 -75 112 -180 128 -180 25 0 -22 180 -73 279 -26 51 -78 332 -90
483 -13 163 -13 433 0 538 12 94 65 293 112 413 l30 79 30 -29 c17 -15 64 -73
105 -128z m4331 -4681 c67 -33 136 -110 158 -176 25 -77 16 -188 -21 -257
-104 -190 -367 -225 -513 -67 -147 159 -83 427 122 505 78 30 187 28 254 -5z
m-730 -398 c31 -40 77 -322 64 -393 -5 -28 -98 -124 -451 -468 -94 -91 -129
-120 -117 -97 10 19 15 36 13 38 -14 14 -183 -135 -310 -274 -269 -293 -274
-296 -482 -297 -127 -1 -147 -4 -215 -29 -41 -16 -111 -52 -155 -80 -128 -84
-172 -92 -265 -52 -244 106 -253 109 -323 109 -63 0 -77 -4 -181 -57 -62 -31
-120 -56 -129 -56 -31 0 -85 60 -126 139 -84 161 -178 199 -350 140 -30 -11
-65 -19 -78 -19 -34 0 -78 52 -104 124 -37 101 -76 171 -113 204 l-35 30 72
26 c40 14 90 30 112 34 l40 8 -43 22 c-90 47 -235 48 -337 3 -110 -49 -195
-178 -195 -295 0 -36 4 -68 10 -71 5 -3 52 37 104 89 51 53 98 96 104 96 25 0
102 -41 126 -67 14 -15 46 -69 71 -119 49 -101 101 -156 161 -173 39 -11 49
-10 151 16 131 33 186 6 253 -128 21 -42 51 -91 66 -109 31 -36 95 -69 135
-70 21 0 46 -25 136 -137 141 -176 190 -250 308 -464 116 -208 162 -283 230
-369 28 -36 68 -90 89 -121 49 -74 130 -152 188 -182 123 -65 268 -31 329 76
21 36 24 55 24 137 0 103 -12 141 -81 260 -31 53 -32 58 -23 120 5 36 6 119 3
185 -6 125 9 319 26 340 7 8 24 9 57 4 27 -4 76 -8 110 -8 34 -1 64 -5 67 -9
3 -5 -2 -49 -10 -98 -10 -58 -18 -209 -24 -434 -12 -452 -25 -516 -134 -637
-87 -97 -191 -143 -321 -143 -63 0 -82 5 -141 35 -103 52 -276 185 -389 299
-62 63 -153 173 -240 291 -261 356 -434 560 -571 674 -118 98 -195 141 -475
267 -252 113 -333 155 -424 220 -204 145 -318 369 -286 562 25 145 158 350
260 401 75 38 178 34 421 -15 126 -25 191 -42 530 -139 436 -125 589 -155 790
-155 325 0 771 131 1275 374 274 133 459 242 674 398 51 37 97 68 102 68 4 0
16 -11 27 -24z m513 -699 c113 -60 139 -206 53 -305 -91 -107 -264 -90 -323
30 -83 172 104 362 270 275z m-4201 -1317 c80 -6 173 -17 208 -25 147 -35 365
-180 537 -356 56 -57 65 -70 45 -66 -14 3 -110 24 -215 47 -201 43 -316 73
-480 122 -324 97 -419 133 -411 152 2 6 12 42 22 79 l19 68 65 -6 c36 -3 130
-10 210 -15z m8564 -210 c19 -41 49 -129 67 -195 17 -66 43 -160 57 -210 44
-160 52 -207 39 -235 -17 -35 -61 -39 -82 -7 -27 41 -165 535 -172 614 -7 89
8 139 37 120 10 -6 34 -45 54 -87z m-6829 23 c165 -63 328 -150 419 -226 138
-113 226 -265 226 -387 0 -119 -49 -174 -151 -168 -82 6 -140 47 -252 182
-147 177 -145 174 -291 459 -111 215 -115 203 49 140z m-2130 -121 c112 -99
123 -114 141 -179 15 -57 16 -75 5 -166 -29 -235 -58 -307 -124 -307 -18 0
-45 9 -62 20 -16 11 -32 20 -35 20 -7 0 -26 -44 -49 -115 -24 -74 -49 -135
-57 -135 -6 0 -2 14 37 139 19 58 27 97 21 103 -10 10 -38 -59 -67 -164 -18
-63 -36 -86 -53 -66 -7 9 -1 41 23 113 34 100 67 231 80 315 4 25 11 50 15 55
11 15 38 239 41 343 2 63 2 63 28 57 14 -4 40 -18 56 -33z m400 -141 c50 -16
116 -44 148 -62 49 -26 62 -39 79 -78 16 -37 18 -53 9 -81 -5 -19 -17 -87 -26
-150 -21 -144 -29 -161 -83 -178 -45 -15 -53 -27 -23 -37 10 -3 25 -20 32 -36
13 -34 9 -60 -42 -287 l-24 -103 -29 5 c-48 10 -55 21 -44 74 5 26 13 54 18
63 15 28 32 141 26 174 -10 50 -105 130 -122 103 -11 -17 -61 -167 -84 -252
-11 -38 -24 -74 -28 -78 -5 -5 -29 1 -54 12 l-46 20 35 118 c20 64 39 133 43
152 4 19 22 94 39 165 28 114 57 281 78 438 3 26 6 47 7 47 1 0 42 -13 91 -29z
m-1214 -182 c28 -53 3 -169 -36 -169 -34 0 -51 103 -27 163 14 33 46 36 63 6z
m424 -50 c0 -32 -4 -44 -15 -44 -16 0 -26 54 -16 82 12 30 31 6 31 -38z m1371
0 c50 -46 57 -74 51 -184 -13 -211 -107 -557 -173 -633 -31 -36 -33 -37 -100
-37 -106 1 -174 46 -174 115 0 36 71 369 89 420 5 14 26 79 47 145 32 105 43
125 81 164 42 43 44 43 98 39 40 -3 62 -11 81 -29z m-2295 -9 c47 -26 64 -129
33 -196 -28 -58 -88 -60 -116 -4 -33 65 -17 172 29 199 23 13 30 13 54 1z
m2739 -20 c0 -5 -18 -63 -40 -129 -22 -65 -54 -183 -70 -262 -16 -79 -34 -164
-39 -189 -5 -25 -17 -83 -26 -130 -9 -47 -18 -86 -20 -88 -2 -2 -29 2 -60 9
l-56 12 2 176 c3 255 26 561 44 579 8 8 45 -20 45 -33 0 -9 -7 -60 -15 -116
-8 -55 -13 -104 -11 -107 2 -4 -2 -70 -10 -147 -19 -204 -18 -252 6 -265 27
-14 36 6 50 110 18 143 42 274 50 285 4 6 11 30 15 55 6 36 38 146 70 238 5
14 65 17 65 2z m101 -184 c-6 -25 -11 -68 -11 -97 l0 -52 38 7 c20 3 52 9 71
12 32 6 33 6 28 -22 -3 -16 -8 -45 -11 -65 -6 -33 -10 -37 -59 -52 -29 -9 -60
-22 -70 -29 -21 -16 -39 -131 -35 -219 l3 -64 73 1 c63 2 73 -1 70 -15 -4 -20
-42 -28 -142 -30 l-79 -1 7 113 c8 130 34 335 46 357 4 8 13 42 19 75 17 87
41 149 54 136 6 -6 6 -24 -2 -55z m7851 -82 c71 -49 94 -100 133 -285 41 -190
54 -245 95 -389 17 -58 43 -152 59 -210 45 -165 86 -311 139 -500 27 -96 64
-231 82 -300 54 -207 109 -403 125 -443 46 -116 -16 -192 -190 -237 -90 -23
-209 -27 -203 -8 3 7 45 33 95 58 193 97 197 108 137 380 -25 114 -151 633
-179 741 -9 31 -24 94 -34 140 -77 335 -182 681 -232 764 -17 28 -49 64 -72
81 -23 16 -59 43 -80 58 -37 27 -77 90 -77 122 0 10 10 29 23 42 19 21 29 23
80 20 43 -3 68 -12 99 -34z m-9307 -556 c175 -75 300 -119 435 -153 216 -55
250 -58 640 -60 362 -2 366 -2 435 -27 39 -14 111 -34 160 -46 50 -11 133 -31
185 -43 175 -40 270 -85 485 -231 169 -113 342 -252 585 -468 440 -389 570
-496 788 -641 149 -100 225 -140 371 -198 165 -66 210 -65 491 14 586 165
1093 249 1750 290 616 38 881 99 1287 295 176 85 326 170 413 232 54 40 73 58
131 130 l29 36 -50 -19 c-27 -10 -50 -17 -50 -14 0 3 9 22 19 43 10 20 53 118
96 217 42 99 99 223 126 276 51 99 95 154 103 128 23 -80 37 -148 45 -219 6
-47 13 -98 16 -115 6 -27 2 -33 -40 -58 -50 -32 -135 -111 -135 -126 0 -24 71
9 342 160 49 27 96 49 107 49 71 0 267 -129 467 -306 104 -93 304 -317 341
-382 36 -62 40 -96 19 -145 -21 -51 -50 -70 -111 -75 -75 -6 -148 19 -360 124
-185 92 -228 103 -318 84 -82 -17 -74 -35 20 -49 51 -8 94 -21 130 -42 50 -29
67 -49 42 -49 -7 0 -52 -25 -101 -56 -248 -157 -293 -169 -643 -183 -458 -18
-475 -24 -1325 -499 -734 -410 -872 -464 -1300 -502 -289 -26 -641 -63 -870
-91 -135 -17 -259 -28 -276 -24 -41 7 -167 69 -399 197 -104 57 -255 134 -335
172 -80 37 -174 84 -210 105 -213 125 -283 168 -351 216 l-76 54 -158 316
c-171 346 -277 517 -382 624 -90 90 -99 60 -11 -37 52 -57 136 -188 191 -297
55 -112 97 -228 182 -510 128 -424 186 -540 521 -1040 140 -209 293 -436 340
-505 112 -165 468 -735 584 -936 233 -404 304 -616 304 -904 1 -205 -39 -360
-144 -570 -22 -45 -50 -104 -61 -132 l-20 -51 38 28 c131 97 240 259 277 411
l18 72 81 -5 c92 -6 184 4 427 47 91 15 191 31 223 33 51 5 57 4 57 -14 0 -10
-28 -74 -63 -141 -102 -198 -135 -323 -143 -538 -10 -237 18 -391 103 -583 19
-43 32 -84 29 -92 -8 -21 -101 -45 -172 -45 -34 0 -122 9 -196 20 -152 23
-430 46 -663 55 -169 6 -204 1 -326 -44 -109 -41 -458 -290 -569 -405 l-34
-36 -53 107 c-50 104 -88 161 -98 151 -7 -7 57 -310 94 -443 47 -174 104 -323
143 -378 11 -15 18 -33 15 -41 -3 -7 -38 -18 -79 -25 -191 -34 -550 -140 -718
-212 -87 -36 -249 -121 -300 -155 -19 -13 -42 -24 -51 -24 -25 0 -102 88 -175
202 -148 228 -201 302 -268 378 -38 44 -71 78 -73 76 -2 -1 10 -29 26 -62 15
-32 32 -70 36 -84 4 -14 31 -69 61 -122 29 -54 49 -98 46 -98 -9 0 -346 156
-375 173 -12 8 -81 49 -152 91 -163 97 -346 227 -470 335 -285 248 -548 636
-619 911 -29 114 -41 229 -61 580 -27 467 -30 778 -10 1005 11 122 18 300 19
455 1 229 -2 268 -23 380 -13 69 -37 161 -53 206 -31 88 -118 238 -217 377
-90 126 -207 313 -286 457 -101 186 -189 333 -268 448 l-70 102 46 118 c63
160 81 212 121 365 58 223 61 252 61 607 0 317 -12 502 -38 595 -10 36 -12 24
-23 -130 -15 -203 -62 -552 -104 -766 -45 -225 -99 -418 -201 -707 -109 -309
-200 -568 -280 -797 -107 -307 -138 -502 -105 -665 10 -47 30 -132 46 -190 38
-140 85 -398 117 -644 21 -162 26 -244 26 -426 1 -265 -2 -283 -148 -905 -151
-643 -184 -874 -186 -1290 -1 -266 5 -303 61 -387 22 -33 62 -68 138 -119 358
-243 715 -507 852 -631 203 -184 209 -205 185 -689 -16 -336 -23 -390 -61
-464 -76 -152 -482 -614 -579 -660 -62 -29 -102 -25 -136 13 -16 18 -29 43
-29 55 0 19 8 25 50 36 59 15 137 81 185 156 35 54 156 307 234 487 26 62 83
184 126 270 77 153 78 159 78 230 0 50 -7 89 -22 126 -21 52 -141 245 -141
227 1 -46 23 -214 36 -274 27 -121 16 -161 -117 -441 -101 -211 -267 -512
-317 -576 -60 -76 -94 -96 -157 -91 -27 2 -67 11 -88 20 l-39 17 49 47 c76 74
202 306 288 527 71 185 90 293 66 386 -5 19 -12 56 -16 83 -8 60 -22 60 -30 0
-28 -236 -37 -263 -185 -569 -154 -318 -197 -374 -292 -374 -33 0 -96 27 -137
59 l-24 18 47 66 c96 135 242 502 252 637 7 81 6 81 -103 -145 -127 -260 -172
-339 -248 -433 -97 -119 -131 -137 -255 -136 -148 2 -418 64 -421 97 -4 39 6
79 32 133 66 141 226 209 428 185 99 -12 171 -6 171 15 0 25 -65 82 -109 94
l-43 11 7 42 c6 36 33 112 111 320 20 52 9 82 -53 152 -73 82 -227 305 -271
390 -38 76 -68 177 -78 267 -8 73 43 497 81 661 62 279 73 560 29 817 -23 136
-94 406 -207 780 -150 498 -189 962 -127 1525 22 198 23 357 4 541 -6 54 -2
74 34 180 22 65 52 161 67 212 14 52 44 134 66 183 88 196 176 527 204 764 14
125 38 457 50 695 46 927 69 1163 125 1310 37 93 75 149 133 191 89 65 341
170 597 249 117 37 220 81 294 128 l50 30 60 -30 c33 -17 123 -57 201 -90z
m9854 -115 c103 -63 206 -146 243 -196 17 -23 49 -80 71 -127 32 -68 41 -99
44 -155 9 -154 -60 -186 -225 -103 -65 33 -65 33 -88 133 -3 17 -27 100 -51
185 -25 85 -56 190 -68 233 -14 46 -18 77 -12 77 6 0 44 -21 86 -47z m171
-721 c19 -6 51 -14 71 -17 45 -7 177 -129 209 -194 48 -96 34 -194 -30 -221
-39 -16 -126 0 -184 34 l-41 24 -39 173 c-21 96 -41 185 -44 198 -4 18 -1 23
9 19 8 -3 30 -10 49 -16z m187 -583 c67 -84 80 -136 44 -180 -15 -19 -28 -23
-71 -24 l-53 0 -23 125 c-13 69 -24 130 -24 136 0 8 13 8 46 -1 35 -9 54 -22
81 -56z m-1879 -3893 c15 -8 37 -25 48 -38 28 -30 134 -209 191 -318 31 -62
68 -112 135 -183 l91 -98 -12 -38 c-16 -55 -99 -178 -161 -239 -60 -59 -153
-119 -196 -127 -26 -5 -38 3 -109 76 -156 159 -234 191 -408 166 -56 -9 -104
-13 -106 -11 -3 2 6 37 18 76 32 98 38 204 17 305 -21 103 -47 164 -101 234
l-44 55 107 12 c110 12 136 19 357 96 72 25 134 46 138 46 4 0 20 -6 35 -14z
m-693 -181 c43 -58 92 -174 110 -264 20 -96 15 -175 -15 -273 -28 -91 -40
-104 -102 -112 -29 -3 -186 -22 -348 -41 -162 -19 -323 -38 -356 -43 l-62 -8
-4 155 c-4 143 -7 164 -37 256 -40 121 -78 189 -143 261 -33 35 -45 55 -36 58
7 2 200 12 428 21 228 9 417 19 419 21 2 2 30 4 61 4 54 0 59 -2 85 -35z
m-1073 -52 c68 -71 127 -173 165 -288 32 -99 36 -124 40 -245 7 -191 14 -181
-149 -208 -228 -38 -560 -82 -570 -76 -5 4 -7 16 -4 28 3 11 10 73 16 137 22
224 -34 472 -139 616 l-30 41 87 8 c136 11 327 21 442 22 l106 2 36 -37z
m-725 -36 c39 -59 91 -171 118 -257 22 -67 28 -111 32 -211 6 -132 -10 -291
-30 -307 -7 -6 -91 -19 -187 -31 -96 -12 -192 -26 -212 -31 -25 -5 -41 -4 -47
4 -5 6 -17 52 -26 101 -25 133 -16 348 19 470 28 95 79 204 122 261 26 34 27
34 108 34 80 0 81 0 103 -33z m3128 -569 c133 -163 192 -240 301 -394 93 -130
132 -188 197 -291 l27 -43 -53 -95 c-29 -52 -72 -122 -96 -155 -49 -67 -158
-162 -181 -158 -23 5 -315 359 -506 616 -96 128 -174 234 -174 237 0 3 28 18
63 35 119 57 227 169 283 294 16 36 34 65 39 65 6 0 51 -50 100 -111z m3604
-793 c66 -23 100 -52 151 -132 50 -76 91 -184 109 -287 14 -75 14 -316 1 -384
-24 -127 -93 -210 -239 -286 -52 -27 -112 -65 -134 -85 -47 -42 -97 -139 -125
-241 -27 -99 -138 -332 -207 -434 -72 -109 -175 -224 -282 -319 -101 -89 -372
-267 -480 -314 -87 -37 -116 -57 -208 -142 -111 -102 -240 -198 -320 -237 -65
-32 -86 -37 -168 -42 -209 -11 -322 75 -417 313 -24 61 -30 91 -30 153 0 69
-17 180 -35 223 -5 13 3 18 41 24 70 10 213 63 262 97 51 35 107 108 124 161
6 20 13 37 14 37 2 0 19 -8 38 -17 32 -15 46 -15 132 -4 123 16 181 34 274 82
205 106 478 374 658 644 111 168 184 331 302 670 82 239 135 348 206 425 55
59 92 85 144 101 43 13 145 10 189 -6z m-2929 -205 c131 -248 136 -259 265
-525 165 -338 152 -297 110 -344 -42 -46 -132 -116 -160 -125 -18 -5 -36 16
-125 145 -108 158 -228 304 -414 503 l-111 118 35 27 c118 88 208 197 262 316
18 41 36 71 39 67 4 -4 48 -86 99 -182z m2474 128 c-86 -116 -151 -277 -249
-618 -45 -154 -55 -167 -83 -107 -48 102 -57 147 -57 282 0 109 4 141 23 195
47 137 121 233 214 279 50 26 73 31 130 31 l68 0 -46 -62z m-445 -745 c13 -29
39 -74 57 -100 19 -27 34 -53 34 -60 0 -14 -60 -119 -88 -153 l-19 -24 -31 65
c-45 92 -65 180 -57 248 7 58 32 169 43 185 3 5 13 -17 22 -50 9 -32 27 -83
39 -111z m-8089 -269 c17 -15 53 -59 79 -98 65 -97 391 -641 391 -652 0 -12
-179 -188 -245 -241 -97 -78 -270 -173 -314 -173 -9 0 -29 21 -45 48 -101 164
-258 428 -291 487 -22 39 -88 151 -147 249 -59 99 -108 183 -108 186 0 13 176
90 285 125 117 38 319 93 347 94 9 1 31 -11 48 -25z m6554 -117 c41 -86 199
-363 274 -481 24 -37 64 -90 89 -117 l45 -48 -16 -48 c-24 -70 -115 -163 -160
-163 -20 0 -42 35 -199 320 -71 129 -158 286 -194 348 -36 62 -62 117 -57 121
5 4 37 29 71 55 35 26 71 58 80 71 10 14 20 24 23 24 3 0 23 -37 44 -82z
m-5984 -793 c66 -105 176 -292 315 -534 71 -124 152 -261 180 -305 28 -44 61
-97 73 -117 l23 -36 -83 -55 c-154 -100 -324 -166 -498 -192 -104 -16 -266
-20 -274 -7 -3 5 2 35 11 68 20 73 23 226 5 276 -7 20 -48 84 -92 142 -43 57
-115 167 -161 243 -45 76 -89 148 -96 159 -13 21 -10 24 91 74 58 28 138 73
178 99 95 61 220 171 248 216 12 19 25 35 30 35 4 0 27 -30 50 -66z m619
-1121 c-5 -16 -30 -67 -54 -114 -24 -47 -55 -123 -69 -170 -107 -369 -220
-695 -258 -745 -18 -25 -248 -49 -453 -48 -185 1 -207 3 -300 28 -107 29 -185
60 -185 73 0 4 48 98 106 208 57 110 143 277 190 372 l86 171 116 -5 c268 -12
593 79 767 216 60 47 68 49 54 14z m-1214 -1107 c167 -58 246 -70 465 -70 107
-1 218 3 247 7 l52 8 -33 -58 c-98 -173 -262 -423 -394 -603 -47 -63 -104
-140 -126 -171 l-41 -56 -74 -7 c-114 -9 -197 -7 -301 9 -154 23 -310 78 -310
110 0 18 107 267 261 603 94 207 128 271 139 268 8 -3 60 -21 115 -40z m-487
-955 c117 -58 315 -101 478 -104 l93 -2 -16 -24 c-8 -13 -79 -110 -157 -215
-78 -105 -195 -262 -259 -349 -75 -101 -127 -162 -145 -169 -15 -6 -81 -11
-147 -12 -102 -1 -130 3 -188 23 -38 13 -71 29 -74 36 -2 8 9 42 25 77 53 111
192 464 297 756 7 19 30 15 93 -17z m-171 -959 c57 -3 103 -6 103 -8 0 -2 -39
-57 -87 -121 -108 -147 -265 -385 -314 -478 l-36 -70 -54 -7 c-113 -16 -280
33 -367 106 l-32 28 82 90 c146 159 292 333 361 431 l67 95 87 -30 c66 -23
111 -32 190 -36z m-873 -587 c109 -108 265 -174 431 -181 l89 -4 2 -82 c1 -67
7 -99 32 -163 58 -149 185 -316 273 -361 27 -13 49 -27 49 -30 0 -3 -11 -17
-25 -32 -14 -14 -21 -30 -16 -35 8 -8 41 2 296 94 118 43 122 43 250 44 121 0
134 -2 195 -29 213 -93 374 -275 456 -512 82 -239 42 -450 -111 -593 -111
-103 -237 -151 -398 -151 -96 0 -180 20 -247 57 l-47 26 34 67 c69 142 83 318
37 476 -32 113 -71 179 -163 276 -100 106 -186 150 -305 156 -101 5 -176 -14
-237 -61 -58 -44 -62 -60 -13 -51 22 4 50 12 64 20 14 7 54 17 88 24 119 21
235 -17 327 -108 99 -97 139 -210 139 -392 0 -99 -4 -124 -26 -182 -52 -137
-139 -247 -260 -327 -103 -70 -156 -85 -293 -86 -118 0 -122 1 -196 36 -86 41
-162 112 -208 193 -40 72 -88 212 -112 326 -23 114 -43 178 -76 244 -14 27
-32 72 -40 100 -46 153 -123 257 -351 471 -103 97 -195 190 -204 208 -65 117
64 354 336 620 l111 107 24 -47 c13 -27 56 -80 95 -118z m2387 -724 c172 -66
318 -290 349 -537 14 -107 -1 -194 -50 -296 -97 -204 -226 -295 -432 -306
-121 -6 -173 2 -163 26 61 147 70 186 69 307 0 95 -5 138 -24 205 -49 176
-121 317 -215 419 -30 32 -55 61 -55 65 0 3 32 22 70 41 205 103 325 123 451
76z"/>
<path d="M9208 23221 c-31 -10 -72 -28 -92 -40 -145 -90 -215 -372 -187 -746
16 -209 29 -303 48 -355 l17 -45 6 30 c3 17 2 129 -2 250 -10 254 -5 361 23
500 34 170 91 262 189 304 64 28 163 38 195 21 63 -34 152 -286 224 -640 23
-110 51 -308 51 -356 0 -2 14 -20 32 -40 l32 -36 -26 -23 c-34 -29 -111 -58
-214 -81 -60 -14 -133 -18 -308 -20 -216 -2 -230 -4 -250 -23 -23 -23 -27 14
38 -346 67 -367 99 -461 188 -552 62 -64 122 -85 237 -86 150 0 251 48 325
155 79 115 97 231 77 484 -14 175 -33 283 -60 336 l-18 38 33 21 c77 47 99
128 50 187 -20 22 -29 55 -46 153 -60 355 -189 745 -285 858 -59 69 -162 89
-277 52z m462 -1313 c0 -7 12 -76 25 -153 37 -212 51 -382 37 -456 -31 -169
-143 -275 -301 -287 -188 -13 -273 77 -340 358 -35 145 -61 315 -64 415 -2 70
-2 70 26 73 16 2 29 -2 31 -10 38 -141 49 -163 111 -224 50 -51 72 -66 120
-79 68 -20 131 -11 187 26 81 54 111 124 107 248 -3 76 -1 85 16 92 30 12 45
10 45 -3z"/>
<path d="M8175 23137 c-270 -90 -344 -264 -316 -744 8 -146 19 -240 35 -313
13 -58 25 -103 26 -100 2 3 6 176 10 385 6 351 9 385 29 447 18 55 30 75 76
116 74 68 147 96 247 96 66 -1 86 -5 142 -33 75 -37 101 -72 135 -183 40 -133
83 -427 106 -720 5 -67 11 -90 26 -104 28 -25 23 -48 -15 -82 -44 -39 -106
-52 -273 -59 -134 -6 -255 4 -382 33 -83 19 -97 9 -99 -73 -4 -139 44 -559 78
-682 26 -91 49 -136 92 -180 69 -71 186 -95 378 -79 172 14 261 70 313 198 20
51 22 70 21 260 0 196 -17 376 -44 470 -9 31 -7 37 19 65 68 72 70 146 4 201
-24 20 -26 32 -48 250 -62 607 -112 745 -297 816 -67 26 -206 34 -263 15z
m531 -1544 c13 -296 11 -418 -9 -486 -37 -123 -130 -171 -332 -171 -94 0 -116
3 -151 21 -59 31 -100 84 -122 155 -28 88 -59 296 -72 469 -12 171 -6 202 37
197 25 -3 29 -8 36 -57 18 -129 126 -241 267 -277 52 -13 71 -14 104 -4 114
33 168 114 170 253 1 85 6 97 42 97 20 0 21 -6 30 -197z"/>
<path d="M9505 22130 c-27 -4 -75 -13 -105 -19 -37 -8 -103 -9 -199 -5 -121 6
-143 5 -139 -7 2 -8 26 -25 53 -39 42 -21 68 -25 155 -28 127 -5 204 17 260
73 19 19 32 34 30 34 -3 -1 -27 -5 -55 -9z"/>
<path d="M7996 22021 c-9 -15 37 -42 97 -58 60 -15 286 -18 337 -3 19 5 48 19
65 30 l29 19 -169 -6 c-154 -5 -290 4 -337 22 -9 4 -19 2 -22 -4z"/>
<path d="M6825 18858 c-2 -7 -8 -49 -14 -93 -10 -81 -34 -232 -46 -297 -6 -33
-4 -37 29 -57 55 -34 71 -23 101 72 31 97 43 232 26 294 -17 62 -84 118 -96
81z"/>
<path d="M7231 18706 c-6 -8 -16 -49 -21 -92 -5 -44 -14 -123 -21 -177 -13
-115 -8 -127 55 -127 49 0 58 6 79 45 19 39 52 245 43 278 -11 46 -54 87 -91
87 -18 0 -38 -6 -44 -14z"/>
<path d="M7692 18500 c-32 -30 -53 -76 -68 -150 -14 -68 -60 -226 -99 -345
-13 -38 -26 -95 -30 -126 -6 -50 -4 -60 14 -78 13 -13 34 -21 55 -21 75 0 103
77 207 557 16 74 11 141 -11 163 -25 25 -41 25 -68 0z"/>
<path d="M11916 22733 c14 -76 100 -219 160 -267 l37 -29 -6 52 c-8 67 -64
169 -128 233 -59 59 -72 61 -63 11z"/>
<path d="M12523 22670 c-82 -19 -222 -115 -260 -178 -13 -20 -23 -40 -23 -45
0 -15 87 7 138 35 63 36 152 120 174 166 9 17 13 32 10 31 -4 -1 -21 -4 -39
-9z"/>
<path d="M12473 22310 c-26 -11 -28 -19 -10 -43 17 -23 88 -46 168 -53 57 -6
78 -3 130 16 l62 23 -45 23 c-76 39 -246 57 -305 34z"/>
<path d="M11580 22248 l-55 -10 55 -28 c114 -57 304 -79 351 -41 20 16 22 23
13 38 -6 10 -22 23 -35 30 -34 16 -262 24 -329 11z"/>
<path d="M12051 22104 c-29 -37 -61 -145 -67 -229 -5 -60 -2 -75 16 -105 l22
-34 24 27 c33 38 44 86 51 208 6 107 0 159 -16 159 -5 0 -19 -12 -30 -26z"/>
<path d="M12282 22100 c-3 -39 22 -137 52 -203 13 -29 47 -74 76 -102 l52 -50
-7 50 c-10 74 -23 118 -54 189 -26 57 -93 146 -110 146 -4 0 -8 -14 -9 -30z"/>
<path d="M10914 20103 c-10 -22 -19 -81 -22 -139 -4 -93 -3 -103 16 -122 25
-25 57 -19 80 16 13 20 17 48 16 122 -1 108 -16 153 -52 158 -18 3 -26 -4 -38
-35z"/>
<path d="M11214 19866 c-89 -17 -137 -33 -182 -59 l-35 -21 39 -17 c76 -34
301 -18 406 29 52 23 76 48 61 63 -17 17 -209 20 -289 5z"/>
<path d="M10567 19820 c-66 -21 -74 -50 -20 -75 30 -15 54 -17 130 -12 130 8
208 48 151 78 -28 15 -222 22 -261 9z"/>
<path d="M10959 19646 c-13 -29 9 -116 49 -189 25 -46 86 -96 100 -82 4 4 7
34 7 68 -1 47 -7 75 -27 113 -55 105 -106 141 -129 90z"/>
<path d="M10782 19637 c-86 -46 -171 -151 -172 -212 0 -18 5 -20 42 -17 34 4
51 13 93 56 83 83 128 180 90 193 -6 2 -30 -7 -53 -20z"/>
</g>
</svg>
