<?xml version="1.0" standalone="no"?>
<!DOCTYPE svg PUBLIC "-//W3C//DTD SVG 20010904//EN"
 "http://www.w3.org/TR/2001/REC-SVG-20010904/DTD/svg10.dtd">
<svg version="1.0" xmlns="http://www.w3.org/2000/svg"
 width="1000.000000pt" height="800.000000pt" viewBox="0 0 1000.000000 800.000000"
 preserveAspectRatio="xMidYMid meet">

<g transform="translate(0.000000,800.000000) scale(0.100000,-0.100000)"
fill="#000000" stroke="none">
<path d="M5297 7516 c-20 -8 -43 -18 -50 -24 -7 -5 -136 -12 -307 -15 -602
-11 -901 -70 -1265 -246 -205 -100 -365 -235 -481 -407 -98 -147 -144 -304
-160 -554 -3 -58 -11 -114 -16 -125 -6 -11 -44 -55 -86 -97 l-77 -78 -56 0
c-31 0 -182 12 -335 26 -334 31 -418 28 -512 -16 -71 -33 -158 -114 -185 -173
-27 -56 -40 -152 -33 -239 l6 -78 -32 0 c-53 0 -217 -29 -298 -52 -388 -111
-710 -456 -920 -983 -93 -235 -230 -722 -282 -1005 -19 -104 -23 -158 -22
-320 1 -269 28 -420 105 -574 111 -220 276 -402 512 -563 150 -103 385 -201
641 -267 55 -14 101 -28 103 -30 3 -2 -14 -32 -36 -65 -76 -111 -94 -279 -41
-386 48 -97 240 -264 395 -343 25 -12 47 -33 56 -54 29 -59 140 -200 238 -301
221 -228 408 -325 606 -315 132 7 222 64 276 174 21 43 24 62 23 154 -1 111
-4 124 -78 317 -98 255 -119 490 -60 677 l18 56 84 41 c46 22 103 58 127 80
l42 39 129 -56 c275 -119 550 -192 894 -238 579 -78 948 -92 1377 -51 417 40
759 117 1121 251 l173 65 57 -33 c31 -18 84 -42 117 -54 l60 -21 23 -69 c14
-41 27 -112 32 -174 14 -176 -12 -322 -100 -549 -57 -150 -74 -226 -68 -318 6
-117 75 -221 177 -266 63 -28 185 -34 276 -13 206 49 487 287 673 571 17 27
32 52 32 56 0 4 26 22 58 40 183 103 318 219 373 321 33 60 34 67 34 168 -1
120 -18 170 -93 270 -23 30 -38 57 -34 60 4 4 61 22 127 40 142 39 312 100
412 147 164 78 407 266 514 399 219 271 282 458 283 844 1 162 -3 216 -22 320
-51 277 -190 773 -282 1005 -182 458 -467 799 -778 930 l-89 38 -25 64 -25 63
27 43 c38 57 76 96 132 135 27 18 48 39 48 47 0 8 -25 31 -56 51 -102 68 -172
188 -194 331 -16 106 -19 113 -40 113 -21 0 -24 -7 -40 -113 -22 -143 -92
-263 -194 -331 -31 -20 -56 -43 -56 -51 0 -7 25 -31 55 -53 l56 -39 -174 -6
c-163 -7 -361 -19 -488 -32 l-56 -6 -6 143 c-8 218 -80 516 -167 688 -167 332
-479 602 -878 761 -176 70 -567 150 -904 185 -142 15 -166 20 -188 40 -49 45
-128 56 -203 30z m-194 -103 c94 -5 107 -8 113 -25 15 -48 157 -83 232 -57 39
14 70 4 217 -67 167 -80 256 -144 391 -278 176 -176 317 -404 394 -634 35
-104 67 -300 76 -468 l7 -111 -69 8 c-38 4 -139 15 -224 24 -85 9 -510 61
-945 115 -950 119 -1409 171 -1815 205 -408 34 -390 32 -390 58 0 54 23 258
35 318 58 277 268 521 577 673 257 126 457 181 788 217 89 9 178 15 471 27 20
1 84 -1 142 -5z m3476 -1416 c23 -49 53 -91 96 -134 l62 -62 -40 -32 c-45 -36
-132 -165 -142 -209 -4 -17 -10 -30 -13 -30 -4 0 -15 22 -25 49 -21 59 -92
159 -140 195 l-35 27 63 62 c43 43 73 85 96 134 19 40 36 73 39 73 3 0 20 -33
39 -73z m-6074 -58 c138 -11 260 -23 273 -25 22 -5 21 -7 -22 -54 -59 -67
-104 -135 -118 -182 -15 -51 7 -123 63 -207 80 -119 154 -163 367 -216 309
-77 1514 -320 1757 -356 202 -29 378 -24 510 15 132 40 298 114 458 207 319
184 491 306 749 531 l53 46 120 -13 c66 -7 253 -25 415 -40 162 -14 303 -30
312 -36 22 -12 164 -12 186 0 27 14 494 43 647 39 l140 -3 33 -65 c19 -38 28
-66 22 -68 -6 -2 -47 1 -92 7 -165 22 -281 7 -393 -51 -197 -102 -261 -220
-206 -379 10 -30 62 -144 116 -254 53 -110 105 -221 115 -246 10 -25 29 -62
42 -81 14 -20 44 -94 69 -164 40 -118 44 -137 44 -229 0 -89 -3 -107 -28 -161
-16 -34 -44 -76 -62 -94 -29 -28 -38 -32 -68 -26 -62 12 -131 114 -182 268
-105 322 -163 415 -299 479 -209 99 -360 -51 -421 -420 -22 -132 -16 -356 14
-516 25 -136 103 -449 130 -529 26 -72 27 -118 4 -144 -10 -10 -63 -54 -118
-98 -210 -163 -236 -186 -284 -243 -112 -135 -155 -257 -155 -441 -1 -88 4
-128 18 -170 23 -68 60 -142 97 -197 l29 -42 -78 -30 c-498 -192 -944 -276
-1528 -288 -287 -6 -468 3 -774 38 -515 59 -768 118 -1085 253 -153 64 -144
54 -108 123 56 107 68 157 67 283 0 185 -44 309 -155 441 -47 56 -110 110
-287 247 -66 52 -123 100 -126 109 -11 27 -6 70 15 129 27 80 105 393 130 529
45 240 35 499 -28 700 -29 92 -52 135 -102 188 -77 82 -165 99 -267 53 -146
-67 -197 -147 -310 -486 -53 -157 -119 -254 -181 -266 -30 -6 -39 -2 -68 26
-18 18 -46 60 -62 94 -25 54 -28 72 -28 161 0 91 4 111 43 226 24 69 55 146
70 170 15 24 37 67 49 94 12 28 63 136 114 240 108 223 129 281 129 348 0 157
-173 293 -425 334 l-50 8 0 120 c0 103 3 126 22 160 36 68 127 143 203 166 47
14 234 10 485 -12z m5874 -479 c117 -13 121 -15 121 -55 0 -55 16 -87 43 -83
18 2 24 12 31 51 5 26 13 47 17 47 4 0 41 -12 81 -26 229 -82 431 -254 604
-514 156 -234 259 -494 388 -985 77 -295 116 -492 123 -630 7 -146 -11 -372
-41 -488 -76 -298 -357 -617 -698 -791 -204 -105 -513 -194 -923 -266 -190
-33 -393 -50 -620 -50 -244 0 -361 15 -472 62 -181 75 -295 279 -279 501 14
208 106 359 311 513 237 178 265 208 265 278 0 23 -9 64 -19 91 -24 64 -104
386 -132 531 -47 245 -36 487 32 701 24 75 37 100 77 141 73 77 127 85 229 34
75 -39 157 -162 201 -302 81 -261 190 -444 279 -466 38 -10 98 13 128 48 69
82 121 250 111 358 -11 118 -51 217 -281 695 -124 257 -123 255 -131 308 -13
96 43 176 175 245 104 56 216 71 380 52z m-6455 -36 c33 -9 88 -32 121 -51
125 -75 174 -148 160 -240 -7 -51 -17 -73 -152 -353 -259 -534 -288 -629 -244
-799 50 -194 135 -284 236 -251 86 28 183 196 269 466 36 112 103 223 163 273
19 16 60 37 90 46 51 16 57 16 98 1 51 -20 109 -80 135 -140 21 -49 54 -180
71 -280 16 -97 6 -344 -20 -480 -28 -145 -108 -467 -132 -531 -26 -68 -25
-124 4 -166 21 -31 86 -86 227 -192 219 -163 294 -280 320 -496 13 -108 -3
-207 -54 -315 -61 -133 -170 -215 -339 -254 -107 -25 -608 -24 -797 1 -290 40
-638 118 -875 199 -444 151 -826 517 -921 885 -34 131 -53 424 -36 557 16 129
59 358 82 441 11 39 45 160 75 269 65 232 108 358 171 505 157 363 389 645
645 785 110 59 251 101 439 129 67 11 207 6 264 -9z m6567 -3781 c65 -98 80
-138 86 -224 8 -116 -12 -165 -106 -259 -42 -41 -116 -103 -163 -137 -81 -58
-86 -60 -68 -30 10 17 31 74 46 126 24 84 26 105 22 205 -5 94 -10 123 -37
191 -17 44 -40 96 -50 115 l-19 35 106 21 c59 12 114 22 123 23 9 0 35 -28 60
-66z m-6746 7 c58 -11 108 -20 110 -20 2 0 -9 -28 -25 -62 -49 -105 -63 -178
-58 -303 5 -111 34 -221 73 -282 25 -37 -151 93 -231 172 -91 90 -106 120
-112 220 -3 63 0 92 17 139 25 71 90 169 108 162 7 -3 60 -14 118 -26z m6429
-48 c49 -97 71 -189 71 -302 -1 -122 -15 -180 -81 -315 -57 -118 -72 -142
-156 -252 -75 -98 -218 -243 -308 -310 -118 -89 -241 -136 -356 -136 -104 -1
-176 31 -234 104 -65 82 -66 198 -3 369 95 259 133 415 133 549 0 75 -21 205
-43 270 l-16 44 57 -7 c110 -14 542 -8 683 9 74 9 136 19 138 21 2 2 24 4 47
4 42 0 45 -2 68 -48z m-6099 -2 c55 -6 110 -13 123 -15 42 -10 576 -6 617 5
75 18 74 19 51 -62 -16 -59 -20 -103 -19 -223 0 -174 15 -244 102 -478 83
-223 90 -332 28 -424 -61 -91 -178 -135 -302 -114 -142 25 -269 99 -425 248
-142 136 -245 270 -317 411 -101 199 -124 335 -83 497 12 49 32 109 44 133 19
40 23 43 51 37 16 -3 75 -10 130 -15z"/>
<path d="M4645 7200 c-33 -22 -117 -75 -187 -117 l-128 -78 0 -115 0 -115 95
-48 c52 -26 98 -47 101 -47 2 0 4 50 2 112 l-3 112 95 56 95 57 7 -31 c4 -17
10 -66 13 -109 4 -43 10 -77 14 -75 4 2 46 28 93 58 77 48 86 57 83 80 -3 14
-7 63 -10 110 l-6 85 -99 53 c-54 28 -100 52 -102 51 -1 0 -30 -18 -63 -39z"/>
<path d="M4535 6553 l7 -118 -97 -58 c-53 -32 -99 -57 -101 -55 -2 2 -7 52
-11 111 l-8 107 -92 -56 -93 -55 0 -58 c0 -32 3 -85 6 -117 l6 -59 98 -51 98
-51 194 118 c183 112 193 120 192 149 0 16 -1 70 -2 119 l-2 89 -92 51 c-50
28 -96 51 -101 51 -6 0 -6 -46 -2 -117z"/>
<path d="M3489 4415 c-92 -18 -190 -61 -284 -125 -104 -70 -125 -94 -125 -139
1 -40 14 -62 47 -79 40 -22 70 -12 164 50 130 86 198 109 330 116 81 3 119 1
164 -13 95 -27 208 -89 319 -175 48 -37 94 -40 132 -6 35 29 38 83 8 123 -29
40 -162 133 -258 181 -154 78 -326 101 -497 67z m-95 -114 c12 -19 -73 -67
-101 -57 -7 3 -10 12 -7 21 12 31 94 59 108 36z"/>
<path d="M6142 4400 c-131 -35 -374 -178 -418 -246 -10 -14 -17 -43 -17 -62 2
-64 76 -103 135 -71 12 6 44 30 72 53 61 50 191 118 265 140 64 19 197 21 273
5 76 -16 143 -48 237 -113 83 -57 114 -66 154 -44 33 17 46 39 47 78 0 49 -15
67 -112 132 -166 111 -248 139 -433 144 -107 3 -143 1 -203 -16z m-162 -158
c0 -27 -85 -67 -110 -52 -18 11 -5 39 22 50 29 11 88 13 88 2z"/>
<path d="M3271 3848 c-38 -74 -41 -100 -10 -72 21 19 69 105 69 124 0 5 -6 10
-14 10 -8 0 -28 -28 -45 -62z"/>
<path d="M3385 3860 c-29 -45 -56 -112 -49 -119 9 -9 33 24 58 79 34 76 29
100 -9 40z"/>
<path d="M3467 3841 c-14 -21 -33 -56 -42 -77 l-16 -38 25 23 c24 22 72 119
63 127 -2 3 -16 -13 -30 -35z"/>
<path d="M6717 3826 c-8 -19 -19 -51 -22 -72 -7 -36 -6 -38 8 -19 18 25 49
125 38 125 -4 0 -15 -15 -24 -34z"/>
<path d="M6802 3838 c-18 -23 -39 -72 -47 -108 -7 -31 -6 -33 8 -21 17 13 67
112 67 130 0 15 -15 14 -28 -1z"/>
<path d="M6871 3812 c-20 -39 -38 -112 -27 -112 10 0 44 75 51 113 9 47 1 47
-24 -1z"/>
<path d="M5347 3824 c-3 -3 -173 -9 -376 -13 l-371 -6 -27 -28 c-26 -25 -28
-34 -28 -100 1 -134 67 -272 188 -389 148 -144 344 -169 493 -63 152 109 269
307 281 477 5 72 4 78 -20 102 -22 22 -35 26 -80 26 -29 0 -56 -3 -60 -6z
m-257 -294 c78 -10 214 -51 245 -74 16 -12 13 -18 -37 -77 -80 -94 -153 -142
-231 -149 -131 -13 -228 28 -322 135 l-50 57 25 20 c42 35 144 78 206 87 80
12 79 12 164 1z"/>
<path d="M2075 3478 c-2 -7 -11 -55 -20 -106 -24 -149 -98 -268 -202 -329 -59
-34 -58 -62 1 -97 95 -56 177 -183 197 -307 18 -111 23 -124 47 -127 26 -4 28
-1 46 106 25 145 102 269 202 328 59 35 60 63 1 97 -99 58 -179 183 -198 309
-18 119 -22 133 -47 136 -12 2 -24 -3 -27 -10z m64 -291 c23 -49 53 -91 96
-134 l62 -62 -40 -32 c-45 -36 -132 -165 -142 -209 -4 -17 -10 -30 -15 -30 -5
0 -11 13 -15 30 -10 44 -97 173 -142 209 l-40 32 62 62 c43 43 73 85 96 134
19 40 36 73 39 73 3 0 20 -33 39 -73z"/>
</g>
</svg>
